<mxfile host="app.diagrams.net" modified="2021-11-27T01:56:33.152Z" agent="5.0 (Windows NT 10.0; Win64; x64) AppleWebKit/537.36 (KHTML, like Gecko) Chrome/96.0.4664.45 Safari/537.36" etag="XKKqOtM1YTdNh3tKG8Ae" version="15.8.6" type="github">
  <diagram id="C5RBs43oDa-KdzZeNtuy" name="Page-1">
    <mxGraphModel dx="1422" dy="794" grid="1" gridSize="10" guides="1" tooltips="1" connect="1" arrows="1" fold="1" page="1" pageScale="1" pageWidth="827" pageHeight="1169" math="0" shadow="0">
      <root>
        <mxCell id="WIyWlLk6GJQsqaUBKTNV-0" />
        <mxCell id="WIyWlLk6GJQsqaUBKTNV-1" parent="WIyWlLk6GJQsqaUBKTNV-0" />
        <mxCell id="wmA0n5PlRptwcoQAHSCJ-2" value="" style="edgeStyle=orthogonalEdgeStyle;rounded=0;orthogonalLoop=1;jettySize=auto;html=1;" edge="1" parent="WIyWlLk6GJQsqaUBKTNV-1" source="wmA0n5PlRptwcoQAHSCJ-0" target="wmA0n5PlRptwcoQAHSCJ-1">
          <mxGeometry relative="1" as="geometry" />
        </mxCell>
        <mxCell id="wmA0n5PlRptwcoQAHSCJ-0" value="draw and import art" style="rounded=1;whiteSpace=wrap;html=1;" vertex="1" parent="WIyWlLk6GJQsqaUBKTNV-1">
          <mxGeometry x="231" y="100" width="120" height="60" as="geometry" />
        </mxCell>
        <mxCell id="wmA0n5PlRptwcoQAHSCJ-4" value="" style="edgeStyle=orthogonalEdgeStyle;rounded=0;orthogonalLoop=1;jettySize=auto;html=1;" edge="1" parent="WIyWlLk6GJQsqaUBKTNV-1" source="wmA0n5PlRptwcoQAHSCJ-1" target="wmA0n5PlRptwcoQAHSCJ-3">
          <mxGeometry relative="1" as="geometry" />
        </mxCell>
        <mxCell id="wmA0n5PlRptwcoQAHSCJ-1" value="Ask user name" style="whiteSpace=wrap;html=1;rounded=1;" vertex="1" parent="WIyWlLk6GJQsqaUBKTNV-1">
          <mxGeometry x="231" y="180" width="120" height="60" as="geometry" />
        </mxCell>
        <mxCell id="wmA0n5PlRptwcoQAHSCJ-6" value="" style="edgeStyle=orthogonalEdgeStyle;rounded=0;orthogonalLoop=1;jettySize=auto;html=1;" edge="1" parent="WIyWlLk6GJQsqaUBKTNV-1" source="wmA0n5PlRptwcoQAHSCJ-3" target="wmA0n5PlRptwcoQAHSCJ-5">
          <mxGeometry relative="1" as="geometry" />
        </mxCell>
        <mxCell id="wmA0n5PlRptwcoQAHSCJ-3" value="ask bid amount" style="whiteSpace=wrap;html=1;rounded=1;" vertex="1" parent="WIyWlLk6GJQsqaUBKTNV-1">
          <mxGeometry x="231" y="270" width="120" height="60" as="geometry" />
        </mxCell>
        <mxCell id="wmA0n5PlRptwcoQAHSCJ-16" value="" style="edgeStyle=orthogonalEdgeStyle;rounded=0;orthogonalLoop=1;jettySize=auto;html=1;" edge="1" parent="WIyWlLk6GJQsqaUBKTNV-1" source="wmA0n5PlRptwcoQAHSCJ-5" target="wmA0n5PlRptwcoQAHSCJ-15">
          <mxGeometry relative="1" as="geometry" />
        </mxCell>
        <mxCell id="wmA0n5PlRptwcoQAHSCJ-5" value="ask if there are more people" style="whiteSpace=wrap;html=1;rounded=1;" vertex="1" parent="WIyWlLk6GJQsqaUBKTNV-1">
          <mxGeometry x="230" y="360" width="120" height="60" as="geometry" />
        </mxCell>
        <mxCell id="wmA0n5PlRptwcoQAHSCJ-11" value="No" style="edgeStyle=orthogonalEdgeStyle;rounded=0;orthogonalLoop=1;jettySize=auto;html=1;" edge="1" parent="WIyWlLk6GJQsqaUBKTNV-1" source="wmA0n5PlRptwcoQAHSCJ-7" target="wmA0n5PlRptwcoQAHSCJ-10">
          <mxGeometry relative="1" as="geometry" />
        </mxCell>
        <mxCell id="wmA0n5PlRptwcoQAHSCJ-13" value="" style="edgeStyle=orthogonalEdgeStyle;rounded=0;orthogonalLoop=1;jettySize=auto;html=1;" edge="1" parent="WIyWlLk6GJQsqaUBKTNV-1" source="wmA0n5PlRptwcoQAHSCJ-7" target="wmA0n5PlRptwcoQAHSCJ-12">
          <mxGeometry relative="1" as="geometry" />
        </mxCell>
        <mxCell id="wmA0n5PlRptwcoQAHSCJ-18" value="Yes" style="edgeLabel;html=1;align=center;verticalAlign=middle;resizable=0;points=[];" vertex="1" connectable="0" parent="wmA0n5PlRptwcoQAHSCJ-13">
          <mxGeometry x="-0.3698" relative="1" as="geometry">
            <mxPoint as="offset" />
          </mxGeometry>
        </mxCell>
        <mxCell id="wmA0n5PlRptwcoQAHSCJ-7" value="Y/N" style="rhombus;whiteSpace=wrap;html=1;rounded=1;" vertex="1" parent="WIyWlLk6GJQsqaUBKTNV-1">
          <mxGeometry x="251" y="530" width="80" height="80" as="geometry" />
        </mxCell>
        <mxCell id="wmA0n5PlRptwcoQAHSCJ-10" value="Print the highest bidder&#39;s name and bid amount" style="whiteSpace=wrap;html=1;rounded=1;" vertex="1" parent="WIyWlLk6GJQsqaUBKTNV-1">
          <mxGeometry x="450" y="350" width="120" height="60" as="geometry" />
        </mxCell>
        <mxCell id="wmA0n5PlRptwcoQAHSCJ-14" style="edgeStyle=orthogonalEdgeStyle;rounded=0;orthogonalLoop=1;jettySize=auto;html=1;entryX=0;entryY=0.25;entryDx=0;entryDy=0;" edge="1" parent="WIyWlLk6GJQsqaUBKTNV-1" source="wmA0n5PlRptwcoQAHSCJ-12" target="wmA0n5PlRptwcoQAHSCJ-1">
          <mxGeometry relative="1" as="geometry">
            <Array as="points">
              <mxPoint x="100" y="195" />
            </Array>
          </mxGeometry>
        </mxCell>
        <mxCell id="wmA0n5PlRptwcoQAHSCJ-12" value="clear the screen" style="whiteSpace=wrap;html=1;rounded=1;" vertex="1" parent="WIyWlLk6GJQsqaUBKTNV-1">
          <mxGeometry x="40" y="350" width="120" height="60" as="geometry" />
        </mxCell>
        <mxCell id="wmA0n5PlRptwcoQAHSCJ-17" style="edgeStyle=orthogonalEdgeStyle;rounded=0;orthogonalLoop=1;jettySize=auto;html=1;exitX=0.5;exitY=1;exitDx=0;exitDy=0;" edge="1" parent="WIyWlLk6GJQsqaUBKTNV-1" source="wmA0n5PlRptwcoQAHSCJ-15" target="wmA0n5PlRptwcoQAHSCJ-7">
          <mxGeometry relative="1" as="geometry">
            <mxPoint x="550" y="460" as="sourcePoint" />
            <Array as="points">
              <mxPoint x="291" y="580" />
              <mxPoint x="291" y="580" />
            </Array>
          </mxGeometry>
        </mxCell>
        <mxCell id="wmA0n5PlRptwcoQAHSCJ-15" value="Add name and bid to a dictionary" style="whiteSpace=wrap;html=1;rounded=1;" vertex="1" parent="WIyWlLk6GJQsqaUBKTNV-1">
          <mxGeometry x="230" y="450" width="120" height="60" as="geometry" />
        </mxCell>
      </root>
    </mxGraphModel>
  </diagram>
</mxfile>
